<svg xmlns="http://www.w3.org/2000/svg" viewBox="0 0 449.47 77.27"><defs><style>.cls-1{fill:#fff;}</style></defs><g id="Calque_2" data-name="Calque 2"><g id="Calque_1-2" data-name="Calque 1"><path class="cls-1" d="M0,0V12.88H45.07V24.2a29,29,0,1,0,0,48.19v4.88H58V0ZM29,64.39a16.1,16.1,0,1,1,16.1-16.1A16.09,16.09,0,0,1,29,64.39Z"/><path class="cls-1" d="M196.47,0V12.88h45.08V24.2a29,29,0,1,0,0,48.19v4.88h12.87V0Zm29,64.39a16.1,16.1,0,1,1,16.1-16.1A16.1,16.1,0,0,1,225.45,64.39Z"/><path class="cls-1" d="M123.44,0V77.27H110.56V29a16.1,16.1,0,0,0-32.19,0v48.3H65.49V29A29,29,0,0,1,110.56,4.88V0Z"/><path class="cls-1" d="M143.86,48.29a16.1,16.1,0,0,0,29,9.66h14.44A29,29,0,0,1,131,48.29V0h12.88V6.44h45.07V19.32H143.86Z"/><path class="cls-1" d="M319.83,25.76h-13A16.1,16.1,0,0,0,274.93,29v48.3H262.05V0h12.88V4.88a29,29,0,0,1,44.9,20.88Z"/><path class="cls-1" d="M381.83,38.63V29a28.38,28.38,0,0,0-.18-3.21,29,29,0,0,0-57.59,0,28.38,28.38,0,0,0-.18,3.21V48.29a28.56,28.56,0,0,0,.18,3.22,29,29,0,0,0,57.59,0h-13a15.15,15.15,0,0,1-.6,2.15,16.1,16.1,0,0,1-30.35,0,15.15,15.15,0,0,1-.6-2.15,15.56,15.56,0,0,1-.32-3.22V38.63Zm-44.15-15a16.1,16.1,0,0,1,30.35,0,15.67,15.67,0,0,1,.6,2.16H337.08A15.67,15.67,0,0,1,337.68,23.6Z"/><path class="cls-1" d="M449.47,48.29a29,29,0,0,1-57.77,3.22h13a15.15,15.15,0,0,0,.6,2.15,16.1,16.1,0,0,0,31.27-5.37,16.28,16.28,0,0,0-.32-3.22H396.4a28.56,28.56,0,0,1-3.23-6.44,28,28,0,0,1-1.47-6.44,26.28,26.28,0,0,1-.18-3.22,29,29,0,0,1,57.77-3.21h-13a15.67,15.67,0,0,0-.6-2.16,16.1,16.1,0,0,0-30.35,0,15.85,15.85,0,0,0-.93,5.36,15.42,15.42,0,0,0,.33,3.22h39.87a29,29,0,0,1,4.88,16.1Z"/></g></g></svg>